<svg width="244" height="70" viewBox="0 0 244 70" fill="none" xmlns="http://www.w3.org/2000/svg">
<path d="M4.41 22.9H18.837V67H4.41V22.9ZM21.735 67H13.986V55.03H21.105C22.323 55.03 23.562 54.925 24.822 54.715C26.082 54.505 27.237 54.064 28.287 53.392C29.337 52.72 30.177 51.712 30.807 50.368C31.479 49.024 31.815 47.218 31.815 44.95C31.815 42.682 31.479 40.876 30.807 39.532C30.177 38.188 29.337 37.18 28.287 36.508C27.237 35.836 26.082 35.395 24.822 35.185C23.562 34.975 22.323 34.87 21.105 34.87H13.986V22.9H21.735C26.859 22.9 31.248 23.782 34.902 25.546C38.598 27.31 41.412 29.83 43.344 33.106C45.318 36.382 46.305 40.33 46.305 44.95C46.305 49.528 45.318 53.476 43.344 56.794C41.412 60.07 38.598 62.59 34.902 64.354C31.248 66.118 26.859 67 21.735 67ZM62.1589 67V55.975H84.3979V67H62.1589ZM62.1589 33.925V22.9H84.3979V33.925H62.1589ZM62.1589 49.675V38.965H83.1379V49.675H62.1589ZM52.5829 22.9H65.8129V67H52.5829V22.9ZM92.5731 22.9H106.433V55.345H124.388V67H92.5731V22.9ZM149.583 51.88V41.8H173.019C173.355 45.58 173.061 49.108 172.137 52.384C171.255 55.66 169.806 58.537 167.79 61.015C165.774 63.493 163.233 65.425 160.167 66.811C157.101 68.197 153.573 68.89 149.583 68.89C145.887 68.89 142.506 68.323 139.44 67.189C136.374 66.055 133.707 64.438 131.439 62.338C129.213 60.238 127.47 57.718 126.21 54.778C124.992 51.838 124.383 48.562 124.383 44.95C124.383 41.338 125.034 38.104 126.336 35.248C127.638 32.35 129.444 29.893 131.754 27.877C134.106 25.861 136.836 24.328 139.944 23.278C143.094 22.186 146.517 21.64 150.213 21.64C153.573 21.64 156.534 22.144 159.096 23.152C161.7 24.16 163.968 25.504 165.9 27.184C167.874 28.822 169.596 30.67 171.066 32.728L158.151 38.524C157.395 37.138 156.408 35.92 155.19 34.87C153.972 33.82 152.313 33.295 150.213 33.295C148.155 33.295 146.265 33.736 144.543 34.618C142.821 35.458 141.435 36.739 140.385 38.461C139.377 40.183 138.873 42.346 138.873 44.95C138.873 47.512 139.335 49.717 140.259 51.565C141.225 53.413 142.548 54.82 144.228 55.786C145.95 56.752 147.945 57.235 150.213 57.235C151.473 57.235 152.607 57.109 153.615 56.857C154.623 56.605 155.484 56.248 156.198 55.786C156.954 55.324 157.605 54.757 158.151 54.085C158.697 53.413 159.159 52.678 159.537 51.88H149.583ZM179.69 22.9H193.865V67H179.69V22.9Z" fill="#68A3BB"/>
<rect x="180" y="7.03174" width="14" height="12.0544" fill="#7ADED6"/>
<path d="M198.8 24.1088H213.537L226.8 45.8067L213.537 66.2992H198.8L213.537 45.8067L198.8 24.1088Z" fill="#7ADED6"/>
<path d="M223.792 33.569L230.652 24.8384L242.8 24.8385L229.566 42.85L223.792 33.569Z" fill="#68A3BB"/>
<path d="M230.332 47.7152L243.543 65.7349L230.332 65.7349L224.431 56.9143L230.332 47.7152Z" fill="#68A3BB"/>
</svg>
