<svg width="899" height="724" viewBox="0 0 899 724" fill="none" xmlns="http://www.w3.org/2000/svg">
<circle cx="709" cy="190" r="189.5" stroke="#7ADED6"/>
<path d="M421.435 513.965L129.319 601.122L199.897 304.563L421.435 513.965Z" stroke="#7ADED6"/>
<g clip-path="url(#clip0_432_10)">
<mask id="mask0_432_10" style="mask-type:luminance" maskUnits="userSpaceOnUse" x="157" y="28" width="507" height="527">
<path d="M664 28.3669H157V554.633H664V28.3669Z" fill="white"/>
</mask>
<g mask="url(#mask0_432_10)">
<path d="M226.308 149.777H353.26V237.979H226.308V149.777Z" fill="white"/>
<path d="M353.362 238.084V236.505V231.874V214.086C353.362 198.719 353.261 176.721 353.261 149.882L353.463 150.092H226.511L226.713 149.882V238.084L226.511 237.874L317.973 237.979L344.135 238.084H351.131H352.956H353.565H351.233H344.236L318.176 238.189L226.612 238.295H226.409V238.084V149.882V149.671H226.612H353.565H353.768V149.882C353.768 176.827 353.666 198.93 353.666 214.192V231.874V236.505C353.666 237.558 353.362 238.084 353.362 238.084Z" fill="#DFDFDF"/>
<path d="M226.308 157.67C226.308 157.565 254.7 157.46 289.784 157.46C324.868 157.46 353.26 157.565 353.26 157.67C353.26 157.776 324.868 157.881 289.784 157.881C254.7 157.881 226.308 157.776 226.308 157.67Z" fill="#DFDFDF"/>
<path d="M231.378 153.671C231.378 154.302 230.972 154.723 230.364 154.723C229.755 154.723 229.35 154.302 229.35 153.671C229.35 153.039 229.755 152.618 230.364 152.618C230.972 152.618 231.378 153.145 231.378 153.671Z" fill="#DFDFDF"/>
<path d="M233.811 152.618C234.371 152.618 234.825 153.09 234.825 153.671C234.825 154.252 234.371 154.723 233.811 154.723C233.251 154.723 232.797 154.252 232.797 153.671C232.797 153.09 233.251 152.618 233.811 152.618Z" fill="#DFDFDF"/>
<path d="M238.272 153.671C238.272 154.302 237.867 154.723 237.258 154.723C236.65 154.723 236.244 154.302 236.244 153.671C236.244 153.039 236.65 152.618 237.258 152.618C237.867 152.618 238.272 153.145 238.272 153.671Z" fill="#DFDFDF"/>
<path d="M237.259 172.828C237.259 169.514 239.945 166.828 243.259 166.828H265.126C268.44 166.828 271.126 169.514 271.126 172.828V195.982C271.126 199.296 268.44 201.982 265.126 201.982H243.259C239.945 201.982 237.259 199.296 237.259 195.982V172.828Z" fill="#DFDFDF"/>
<path d="M335.92 176.827C335.92 176.932 322.738 177.037 306.413 177.037C290.087 177.037 276.905 176.932 276.905 176.827C276.905 176.721 290.087 176.616 306.413 176.616C322.738 176.616 335.92 176.721 335.92 176.827Z" fill="#DFDFDF"/>
<path d="M335.92 183.352C335.92 183.458 322.738 183.563 306.413 183.563C290.087 183.563 276.905 183.458 276.905 183.352C276.905 183.247 290.087 183.142 306.413 183.142C322.738 183.142 335.92 183.247 335.92 183.352Z" fill="#DFDFDF"/>
<path d="M335.92 189.878C335.92 189.983 322.738 190.088 306.413 190.088C290.087 190.088 276.905 189.983 276.905 189.878C276.905 189.773 290.087 189.667 306.413 189.667C322.738 189.667 335.92 189.773 335.92 189.878Z" fill="#DFDFDF"/>
<path d="M311.788 196.404C311.382 196.509 310.875 196.509 310.368 196.509L306.616 196.614C303.473 196.614 299.113 196.719 294.347 196.719C289.581 196.719 285.221 196.719 281.976 196.614L278.224 196.509C277.717 196.509 277.312 196.509 276.906 196.404C277.312 196.298 277.819 196.298 278.224 196.298L281.976 196.193C285.12 196.088 289.48 196.088 294.347 196.088C299.214 196.088 303.473 196.088 306.616 196.193L310.368 196.298C310.875 196.298 311.382 196.298 311.788 196.404Z" fill="#DFDFDF"/>
<path d="M239.388 217.876C239.388 215.667 241.179 213.876 243.388 213.876H251.307C253.517 213.876 255.307 215.667 255.307 217.876V226.4C255.307 228.61 253.517 230.4 251.307 230.4H243.388C241.179 230.4 239.388 228.61 239.388 226.4V217.876Z" fill="#DFDFDF"/>
<path d="M268.287 217.876C268.287 215.667 270.078 213.876 272.287 213.876H280.207C282.416 213.876 284.207 215.667 284.207 217.876V226.4C284.207 228.61 282.416 230.4 280.207 230.4H272.287C270.078 230.4 268.287 228.61 268.287 226.4V217.876Z" fill="#DFDFDF"/>
<path d="M297.085 217.876C297.085 215.667 298.876 213.876 301.085 213.876H309.005C311.214 213.876 313.005 215.667 313.005 217.876V226.4C313.005 228.61 311.214 230.4 309.005 230.4H301.085C298.876 230.4 297.085 228.61 297.085 226.4V217.876Z" fill="#DFDFDF"/>
<path d="M325.983 217.876C325.983 215.667 327.774 213.876 329.983 213.876H337.903C340.112 213.876 341.903 215.667 341.903 217.876V226.4C341.903 228.61 340.112 230.4 337.903 230.4H329.983C327.774 230.4 325.983 228.61 325.983 226.4V217.876Z" fill="#DFDFDF"/>
<path d="M584.655 171.827C584.554 172.353 584.25 172.88 583.946 173.301C582.526 175.511 579.991 176.564 577.456 176.143C576.341 175.932 575.225 175.406 574.313 174.564C573.806 174.143 573.399 173.617 573.095 173.09C572.689 172.459 572.487 171.827 572.285 171.196C571.879 169.827 571.98 168.249 572.487 166.88C572.994 165.512 573.906 164.354 575.123 163.617C575.731 163.196 576.341 162.986 576.949 162.775C577.557 162.565 578.166 162.565 578.876 162.565C581.106 162.67 583.133 163.933 584.35 165.933C585.161 167.196 585.466 168.775 585.263 170.354C585.06 170.88 584.858 171.406 584.655 171.827C584.655 171.827 584.858 171.301 584.96 170.248C585.061 168.775 584.757 167.301 584.047 166.038C582.932 164.144 580.903 162.986 578.773 162.986C578.165 162.986 577.557 163.091 576.949 163.196C573.603 164.144 571.675 167.722 572.588 171.196C572.791 171.827 572.994 172.459 573.4 172.985C573.704 173.511 574.11 174.038 574.515 174.459C576.138 175.932 578.369 176.458 580.397 175.827C581.816 175.406 583.032 174.564 583.843 173.301C584.147 172.88 584.453 172.353 584.655 171.827Z" fill="#DFDFDF"/>
<path d="M587.871 157.469L587.882 157.261L588.02 156.537L588.56 153.853L588.554 153.957C587.169 153.353 585.291 152.511 583.12 151.444L583.221 151.45L581.047 154.456L581.042 154.56L580.941 154.554C579.636 154.373 578.325 154.296 577.105 154.432L577.004 154.426L577.009 154.323L575.045 151.177L575.247 151.189L569.676 153.37L569.782 153.272L570.304 156.959L570.299 157.063L570.193 157.16C569.142 157.935 568.188 158.818 567.424 159.924L567.318 160.022L567.217 160.016C566.119 159.741 564.914 159.567 563.715 159.288L563.922 159.196L561.516 164.8L561.425 164.586L564.344 166.847L564.44 166.956L564.435 167.061C564.266 168.409 564.202 169.659 564.336 171.025L564.33 171.128L564.224 171.228L561.19 173.243L561.201 173.034L563.336 178.802L563.14 178.685C564.259 178.543 565.485 178.3 566.705 178.164L566.806 178.17L566.901 178.28C567.655 179.369 568.515 180.36 569.587 181.153L569.677 181.367L569.672 181.473L569.667 181.577L569.656 181.785L569.529 182.3L569.381 183.23L569.085 185.095L568.994 184.88L574.434 187.289L574.227 187.381L576.401 184.374L576.507 184.277L576.608 184.283C577.913 184.463 579.123 184.534 580.444 184.403L580.545 184.409L580.64 184.52L582.605 187.664L582.408 187.549C584.366 186.829 586.223 186.102 587.979 185.368L587.867 185.571L587.346 181.883L587.351 181.78L587.457 181.681C588.507 180.907 589.462 180.024 590.225 178.919L590.332 178.821L590.432 178.827C591.632 179.107 592.831 179.385 593.934 179.555L593.728 179.647L596.134 174.042L596.224 174.258L593.305 171.997L593.204 171.991L593.21 171.886C593.379 170.537 593.447 169.183 593.309 167.921L593.314 167.818L593.415 167.824L596.449 165.809L596.444 165.913L594.308 160.145L594.409 160.151C592.982 160.381 591.762 160.517 590.844 160.672C590.281 159.805 589.612 159.033 588.938 158.367L588.36 157.811L587.871 157.469L588.169 157.591C588.264 157.7 588.46 157.817 588.752 158.043C589.527 158.715 590.196 159.486 590.764 160.251L590.663 160.245C591.682 160.096 592.801 159.953 594.229 159.723L594.128 159.717L594.123 159.82L596.258 165.588L596.253 165.691L596.146 165.791L593.112 167.806L593.219 167.708C593.352 169.074 593.283 170.428 593.114 171.775L593.019 171.666L595.938 173.927L596.033 174.036L596.028 174.142L593.621 179.746L593.616 179.85L593.515 179.844C592.417 179.57 591.212 179.396 590.013 179.116L590.119 179.018C589.255 180.116 588.3 181 587.25 181.774L587.361 181.572L587.883 185.259L587.878 185.362L587.772 185.462L582.202 187.641L582.095 187.74L582 187.629L580.035 184.485L580.232 184.6C578.911 184.732 577.6 184.655 576.295 184.474L576.502 184.38L574.328 187.387L574.222 187.486L574.121 187.48L568.687 184.966L568.586 184.96L568.591 184.857L568.888 182.994L569.036 182.062L569.163 181.547L569.173 181.338L569.179 181.235L569.184 181.129C569.364 181.559 569.179 181.235 569.274 181.344C568.308 180.452 567.347 179.454 566.599 178.262L566.795 178.377C565.575 178.514 564.349 178.756 563.23 178.899L563.028 178.887L562.933 178.778L560.798 173.01L560.702 172.901L560.808 172.802C561.853 172.133 562.903 171.358 563.842 170.787L563.731 170.99C563.597 169.624 563.666 168.269 563.835 166.92L563.925 167.136L561.006 164.875L560.911 164.765L560.916 164.659L563.323 159.055L563.328 158.952L563.429 158.958C564.628 159.237 565.827 159.515 566.931 159.686L566.724 159.777C567.588 158.68 568.543 157.795 569.593 157.022L569.487 157.119L568.966 153.432L568.971 153.328L569.072 153.334C571.029 152.614 572.886 151.887 574.642 151.153L574.743 151.159L574.838 151.27L576.802 154.415L576.702 154.409C578.023 154.278 579.333 154.355 580.639 154.537L580.538 154.531L582.712 151.524L582.717 151.42L582.818 151.426L588.247 154.042L588.348 154.048L587.807 156.734L587.67 157.457L587.871 157.469Z" fill="#DFDFDF"/>
<path d="M606.049 163.83C605.11 163.258 604.262 162.473 603.615 161.675L600.723 162.471L598.47 157.902L600.795 155.886C600.535 154.751 600.482 153.709 600.525 152.557L597.921 151.04L599.493 146.14L602.438 146.386C602.995 145.412 603.76 144.531 604.535 143.86L603.777 140.873L608.208 138.523L610.149 140.918C611.248 140.644 612.256 140.585 613.37 140.623L614.952 137.918L619.684 139.521L619.433 142.565C620.372 143.137 621.221 143.924 621.867 144.722L624.759 143.924L627.012 148.493L624.688 150.511C624.947 151.644 625 152.686 624.957 153.838L627.561 155.357L625.989 160.255L623.044 160.011C622.487 160.983 621.717 161.76 620.948 162.537L621.705 165.522L617.274 167.872L615.333 165.479C614.235 165.753 613.227 165.812 612.113 165.772L610.53 168.477L605.798 166.874L606.049 163.83ZM610.826 158.325C613.606 159.312 616.657 157.669 617.523 154.797C618.49 151.92 616.916 148.773 614.141 147.891C611.362 146.906 608.31 148.547 607.444 151.419C606.477 154.297 607.946 157.345 610.826 158.325Z" fill="#A3A3A3"/>
<path d="M576.96 136.856C575.496 135.897 574.224 134.718 573.147 133.423L568.557 134.632L565.064 127.524L568.646 124.388C568.254 122.635 568.17 120.969 568.282 119.185L564.214 116.709L566.658 109.043L571.332 109.499C572.266 107.98 573.413 106.659 574.671 105.541L573.521 100.803L580.415 97.1589L583.432 100.846C585.13 100.433 586.743 100.338 588.467 100.447L590.883 96.2291L598.288 98.7203L597.825 103.554C599.289 104.512 600.556 105.586 601.733 106.876L606.323 105.666L609.816 112.774L606.234 115.909C606.626 117.664 606.71 119.329 606.598 121.112L610.666 123.59L608.222 131.256L603.453 130.91C602.519 132.428 601.372 133.748 600.114 134.867L601.264 139.606L594.37 143.249L591.353 139.561C589.655 139.975 588.042 140.07 586.318 139.962L583.801 144.184L576.396 141.694L576.96 136.856ZM584.514 128.262C588.932 129.674 593.56 127.208 595.053 122.732C596.545 118.256 594.075 113.386 589.752 111.864C585.333 110.452 580.705 112.918 579.213 117.394C577.725 121.974 580.095 126.849 584.514 128.262Z" fill="#A3A3A3"/>
<path d="M531.419 91.8872C531.622 91.6767 531.724 91.4662 531.926 91.2557L533.447 89.6769C534.766 88.3086 536.591 86.5193 538.619 84.5195V84.73C536.591 82.7302 534.766 80.9409 533.447 79.6778L531.926 78.099C531.724 77.8885 531.521 77.678 531.419 77.4675C531.622 77.5728 531.825 77.7833 532.028 77.9938L533.65 79.4673C534.968 80.7304 536.895 82.5197 538.923 84.5195L539.024 84.6247L538.923 84.73C536.895 86.7298 535.07 88.5191 533.65 89.8874L532.028 91.4662C531.926 91.5715 531.622 91.6767 531.419 91.8872Z" fill="#7D7D7D"/>
<path d="M515.602 77.3623C515.399 77.5728 515.298 77.7833 515.095 77.9938L513.574 79.5726C512.256 80.9409 510.431 82.7302 508.403 84.73V84.4143C510.431 86.4141 512.256 88.2034 513.574 89.4664L515.095 91.0452C515.298 91.2557 515.501 91.4662 515.602 91.6767C515.399 91.5715 515.196 91.361 514.994 91.1505C514.588 90.7295 513.98 90.2032 513.371 89.6769C512.053 88.4139 510.126 86.6246 508.098 84.6248L507.997 84.5195L508.098 84.4143C510.126 82.4145 511.952 80.6252 513.371 79.2569L514.994 77.7833C515.196 77.6781 515.399 77.4676 515.602 77.3623Z" fill="#7D7D7D"/>
<path d="M519.658 95.2554C519.556 95.2554 521.179 90.4137 523.41 84.4143C525.64 78.4149 527.364 73.6785 527.466 73.6785C527.567 73.6785 525.945 78.5201 523.714 84.5195C521.483 90.519 519.759 95.2554 519.658 95.2554Z" fill="#7D7D7D"/>
<path d="M549.469 104.833V102.518V93.6766C549.469 86.0984 549.469 75.2573 549.366 62.1007L549.469 62.3112H497.957L498.159 62.1007V105.675L497.957 105.465L535.17 105.57H545.717H548.556H545.817L535.273 105.675L497.957 105.781H497.755V105.57V61.9954V61.7849H497.957H549.469H549.57V61.9954C549.57 75.1521 549.469 85.9931 549.469 93.6766V102.518V104.833Z" fill="#7D7D7D"/>
<path d="M549.874 68.5211C549.874 68.6263 538.213 68.7316 523.915 68.7316C509.618 68.7316 497.957 68.6263 497.957 68.5211C497.957 68.4158 509.517 68.3105 523.915 68.3105C538.315 68.3105 549.874 68.4158 549.874 68.5211Z" fill="#7D7D7D"/>
<path d="M502.115 65.3635C502.115 65.7845 501.811 66.1003 501.405 66.1003C500.998 66.1003 500.695 65.7845 500.695 65.3635C500.695 64.9425 500.998 64.6267 501.405 64.6267C501.811 64.6267 502.115 64.9425 502.115 65.3635Z" fill="#7D7D7D"/>
<path d="M503.94 64.6267C504.333 64.6267 504.65 64.9562 504.65 65.3635C504.65 65.7698 504.333 66.1003 503.94 66.1003C503.548 66.1003 503.23 65.7698 503.23 65.3635C503.23 64.9562 503.548 64.6267 503.94 64.6267Z" fill="#7D7D7D"/>
<path d="M507.185 65.3635C507.185 65.7845 506.881 66.1003 506.475 66.1003C506.069 66.1003 505.766 65.7845 505.766 65.3635C505.766 64.9425 506.069 64.6267 506.475 64.6267C506.881 64.6267 507.185 64.9425 507.185 65.3635Z" fill="#7D7D7D"/>
<path d="M330.851 83.0461H449.894V133.252H330.851V83.0461Z" fill="white"/>
<path d="M449.895 133.252V132.41V129.778V119.779C449.895 111.149 449.895 98.6235 449.792 83.046L449.895 83.1512L330.851 83.2565L331.054 83.046V133.252L330.851 133.041L416.23 133.147L440.971 133.252H416.23L330.75 133.357H330.547V133.147V82.9407V82.7302H330.75H449.792H449.895V83.046C449.895 98.6235 449.895 111.149 449.792 119.779V129.778V132.304C449.792 132.831 449.895 133.252 449.895 133.252Z" fill="#DFDFDF"/>
<path d="M331.054 89.8875C331.054 89.7823 357.621 89.677 390.474 89.677C423.328 89.677 449.895 89.7823 449.895 89.8875C449.895 89.9928 423.328 90.098 390.474 90.098C357.621 90.098 331.054 89.9928 331.054 89.8875Z" fill="#DFDFDF"/>
<path d="M336.022 86.8352C336.022 87.3615 335.617 87.6772 335.11 87.6772C334.603 87.6772 334.197 87.2562 334.197 86.8352C334.197 86.309 334.603 85.8879 335.11 85.8879C335.617 85.8879 336.022 86.309 336.022 86.8352Z" fill="#EBEBEB"/>
<path d="M338.962 86.8352C338.962 87.3615 338.556 87.6772 338.049 87.6772C337.542 87.6772 337.137 87.2562 337.137 86.8352C337.137 86.309 337.542 85.8879 338.049 85.8879C338.556 85.8879 338.962 86.309 338.962 86.8352Z" fill="#EBEBEB"/>
<path d="M340.99 85.8879C341.494 85.8879 341.902 86.3121 341.902 86.8352C341.902 87.3583 341.494 87.7825 340.99 87.7825C340.486 87.7825 340.077 87.3583 340.077 86.8352C340.077 86.3121 340.486 85.8879 340.99 85.8879Z" fill="#EBEBEB"/>
<path d="M340.991 102.992C340.991 100.231 343.23 97.9919 345.991 97.9919H364.789C367.55 97.9919 369.789 100.231 369.789 102.992V122.779C369.789 125.54 367.55 127.779 364.789 127.779H345.991C343.23 127.779 340.991 125.54 340.991 122.779V102.992Z" fill="#DFDFDF"/>
<path d="M441.68 105.991C441.68 106.097 426.876 106.202 408.624 106.202C390.372 106.202 375.567 106.097 375.567 105.991C375.567 105.886 390.372 105.781 408.624 105.781C426.876 105.781 441.68 105.886 441.68 105.991Z" fill="#DFDFDF"/>
<path d="M441.68 112.096C441.68 112.201 426.876 112.307 408.624 112.307C390.372 112.307 375.567 112.201 375.567 112.096C375.567 111.991 390.372 111.885 408.624 111.885C426.876 111.885 441.68 111.991 441.68 112.096Z" fill="#DFDFDF"/>
<path d="M417.751 118.201H416.533L411.97 118.306L396.964 118.411L381.957 118.306L377.394 118.201L381.957 118.095H396.964H411.97L416.533 118.201H417.751Z" fill="#DFDFDF"/>
<path d="M636.166 495.743C636.166 495.849 534.968 496.06 410.146 496.06C285.322 496.06 184.125 495.953 184.125 495.743C184.125 495.533 285.322 495.427 410.146 495.427C534.968 495.427 636.166 495.533 636.166 495.743Z" fill="#253138"/>
<path d="M493.563 462.58L496.204 484.769C496.204 484.769 519.453 488.913 520.401 492.926L477.911 500.749L472.31 466.442L493.563 462.58Z" fill="#7ADED6"/>
<path d="M482.538 484.988C481.7 485.456 481.335 486.347 481.675 487.207C482.015 488.066 482.98 488.396 483.835 488.028C484.673 487.561 485.121 486.552 484.78 485.692C484.342 484.85 483.294 484.639 482.455 485.107" fill="white"/>
<path d="M477.211 500.754L476.71 497.302L518.48 492.548C518.48 492.548 520.503 493.056 520.503 494.467L477.211 500.754Z" fill="white"/>
<path d="M496.81 484.649C496.842 484.846 495.867 485.127 494.888 486.017C493.91 486.907 493.557 487.887 493.343 487.823C493.129 487.761 493.236 486.522 494.397 485.497C495.558 484.472 496.779 484.453 496.81 484.649Z" fill="#253138"/>
<path d="M501.564 485.887C501.595 486.087 500.777 486.66 500.233 487.696C499.69 488.732 499.637 489.674 499.441 489.712C499.245 489.75 498.956 488.565 499.664 487.29C500.372 486.014 501.532 485.686 501.564 485.887Z" fill="#253138"/>
<path d="M504.958 491.254C504.764 491.292 504.316 490.335 504.727 489.102C505.138 487.87 505.935 487.189 506.063 487.372C506.192 487.555 505.703 488.281 505.357 489.29C505.012 490.301 505.234 491.093 504.958 491.254Z" fill="#253138"/>
<path d="M495.75 479.348C495.68 479.559 494.733 479.412 493.548 479.701C492.361 479.991 491.519 480.525 491.389 480.346C491.258 480.168 492.054 479.343 493.442 479.021C494.828 478.699 495.821 479.138 495.75 479.348Z" fill="#253138"/>
<path d="M494.385 466.307L494.782 470.233L473.585 473.24L472.948 469.751L494.385 466.307Z" fill="black"/>
<path d="M495.229 474.483C494.566 474.804 493.771 474.946 493.045 474.874C492.234 474.918 491.492 474.748 490.749 474.577C490.32 474.452 489.891 474.326 489.446 474.103C489.232 474.04 488.902 473.897 488.772 473.718C488.426 473.476 488.347 472.985 488.499 472.654C488.649 472.324 489.016 472.056 489.314 472.003C489.61 471.949 489.81 471.914 490.123 471.959C490.635 471.968 491.065 472.093 491.494 472.219C492.236 472.39 493.011 472.756 493.686 473.141C494.821 473.848 495.245 474.581 495.261 474.679C495.277 474.778 494.569 474.196 493.45 473.588C492.792 473.301 492.133 473.015 491.39 472.844C490.961 472.719 490.548 472.692 490.135 472.665C489.623 472.655 489.224 472.726 489.158 472.941C489.09 473.155 489.174 473.039 489.189 473.137C489.303 473.218 489.535 473.379 489.749 473.442C490.178 473.567 490.523 473.809 490.935 473.836C491.679 474.006 492.422 474.177 493.148 474.249C493.776 474.339 494.503 474.411 495.229 474.483Z" fill="#253138"/>
<path d="M495.071 475.016C494.59 474.483 494.27 473.709 494.161 472.995C494.037 472.181 494.011 471.346 494.079 470.493C494.115 470.067 494.232 469.521 494.362 469.074C494.463 468.425 494.984 467.9 495.55 467.683C495.938 467.606 496.261 467.75 496.517 468.119C496.66 468.405 496.786 468.589 496.833 468.894C497.008 469.384 497.086 469.893 497.066 470.421C497.094 471.255 496.929 472.13 496.537 472.836C495.932 474.111 495.105 474.591 495.089 474.488C495.074 474.386 495.69 473.844 496.1 472.608C496.396 471.919 496.481 471.169 496.47 470.436C496.503 470.009 496.442 469.604 496.283 469.215C496.109 468.725 495.964 468.438 495.77 468.477C495.577 468.515 495.236 468.899 495.103 469.346C494.971 469.791 494.841 470.237 494.805 470.664C494.72 471.415 494.636 472.166 494.745 472.878C494.849 474.221 495.168 474.997 495.071 475.016Z" fill="#253138"/>
<path d="M307.832 314.498L334.298 407.226C335.514 411.331 339.165 414.173 343.221 414.173L450.705 414.488C456.18 414.488 460.642 409.857 460.642 404.174V403.647C460.338 398.174 455.978 393.859 450.705 393.859H409.638L376.784 298.71H319.189C312.699 298.71 307.325 304.183 307.325 311.025C307.325 312.182 307.528 313.34 307.832 314.498Z" fill="#455A63"/>
<path d="M398.788 401.543C398.788 401.754 387.837 401.963 374.35 401.963C360.864 401.963 349.913 401.754 349.913 401.543C349.913 401.333 360.864 401.122 374.35 401.122C387.837 401.122 398.788 401.333 398.788 401.543Z" fill="#253138"/>
<path d="M315.742 301.657C315.944 301.552 323.245 323.76 332.067 351.337C340.889 378.913 347.885 401.121 347.683 401.228C347.48 401.332 340.179 379.125 331.357 351.547C322.535 323.971 315.539 301.763 315.742 301.657Z" fill="#253138"/>
<path d="M394.225 496.69L387.735 496.481V414.174H394.225V496.69Z" fill="#455A63"/>
<path d="M360.561 496.27H421.502L393.921 486.376H387.33L360.561 496.27Z" fill="#455A63"/>
<path d="M345.046 277.449L355.085 329.76L353.259 368.914L421.096 357.231L418.46 322.918L418.358 294.5L434.988 327.97L447.967 301.973L424.239 257.345C419.879 252.714 414.606 249.136 408.725 246.925C405.582 245.768 402.337 245.136 398.991 245.031C391.386 247.557 383.172 247.557 375.567 245.031C374.655 245.136 373.336 245.241 371.613 245.452H371.308C356.91 247.346 345.857 259.661 345.147 274.712L345.046 277.449Z" fill="#7ADED6"/>
<path d="M371.715 245.557C371.715 245.557 343.83 245.768 340.382 276.291L339.875 298.71L363.907 298.499L371.715 245.557Z" fill="#7ADED6"/>
<path d="M418.157 327.97C417.954 327.97 418.053 315.55 418.359 300.289C418.663 285.027 419.17 272.607 419.373 272.607C419.574 272.607 419.475 285.027 419.171 300.289C418.867 315.55 418.36 327.97 418.157 327.97Z" fill="#253138"/>
<path d="M400.715 245.557C400.715 245.557 400.816 245.768 400.918 246.083C401.121 246.61 401.222 247.136 401.323 247.662C401.729 249.662 401.628 251.662 401.121 253.556C400.309 256.398 398.687 258.924 396.558 260.924C393.921 263.345 390.474 264.713 386.925 264.713C383.376 264.818 379.928 263.345 377.393 260.714C375.365 258.503 374.148 255.767 373.844 252.714C373.641 250.714 373.844 248.715 374.554 246.82C374.757 246.294 374.959 245.873 375.264 245.347C375.466 245.031 375.568 244.926 375.568 244.926C375.568 244.926 375.264 245.662 374.858 246.925C374.351 248.82 374.148 250.714 374.452 252.609C374.858 255.451 376.075 258.082 378.001 260.187C380.435 262.608 383.68 263.976 387.026 263.976C390.372 263.976 393.718 262.713 396.253 260.398C398.383 258.503 400.005 256.082 400.816 253.346C401.323 251.451 401.526 249.557 401.323 247.662C400.918 246.294 400.614 245.557 400.715 245.557Z" fill="#253138"/>
<path d="M453.747 471.536L463.785 500.27L478.083 520.584C479.097 521.951 478.692 523.952 477.373 525.004L477.271 525.108C476.46 525.635 475.446 525.741 474.534 525.32C468.754 522.794 447.663 513.637 447.054 511.532C446.344 509.006 432.757 478.167 432.757 478.167L453.747 471.536Z" fill="#7ADED6"/>
<path d="M477.272 525.11L446.345 509.638L446.852 510.795C447.257 511.848 447.967 512.69 448.88 513.216C451.415 514.691 458.513 518.374 474.433 525.32C475.345 525.742 476.359 525.742 477.272 525.11Z" fill="white"/>
<path d="M448.474 498.165C449.387 498.375 449.894 499.323 449.793 500.27C449.591 501.217 448.677 501.849 447.765 501.638C446.852 501.428 446.244 500.375 446.345 499.428C446.649 498.481 447.663 497.954 448.577 498.27" fill="white"/>
<path d="M466.321 515.216C466.625 514.057 467.232 513.004 467.943 512.058C469.26 510.585 470.884 510.373 470.884 510.164C470.884 509.953 470.478 510.058 469.767 510.164C467.943 510.69 466.625 512.163 466.321 514.057C466.118 514.795 466.218 515.216 466.321 515.216Z" fill="#253138"/>
<path d="M469.667 518.268C469.87 518.374 470.377 517.11 471.593 516.058C472.405 515.531 473.216 515.005 474.128 514.584C474.128 514.375 472.607 514.375 471.188 515.531C469.768 516.689 469.565 518.163 469.667 518.268Z" fill="#253138"/>
<path d="M460.845 511.848C461.048 511.953 461.859 509.953 463.684 508.269C465.51 506.585 467.436 505.848 467.334 505.638C467.233 505.427 465.104 505.848 463.177 507.743C461.25 509.637 460.642 511.742 460.845 511.848Z" fill="#253138"/>
<path d="M457.093 503.322C457.195 503.427 458.512 502.164 460.44 501.323C462.366 500.481 464.089 500.27 464.089 500.165C464.089 500.058 462.265 499.849 460.135 500.797C458.005 501.744 456.991 503.216 457.093 503.322Z" fill="#253138"/>
<path d="M453.949 495.007C454.051 495.112 455.267 493.534 457.397 492.797C459.526 492.06 461.351 492.481 461.351 492.271C461.351 492.06 460.946 491.955 460.135 491.85C458.107 491.534 455.977 492.271 454.558 493.849C454.051 494.481 453.848 494.902 453.949 495.007Z" fill="#253138"/>
<path d="M456.688 491.219C456.586 490.798 456.484 490.482 456.281 490.167C455.774 489.219 455.167 488.377 454.356 487.64C453.849 487.114 453.139 486.692 452.429 486.588C451.922 486.588 451.414 486.903 451.211 487.325C451.008 487.745 451.008 488.271 451.211 488.797C452.022 490.798 454.153 491.745 456.181 491.219C458.107 490.693 459.527 489.007 459.73 486.902C459.831 486.375 459.627 485.85 459.323 485.535C458.918 485.22 458.412 485.113 457.905 485.43C457.296 485.85 456.789 486.483 456.485 487.114C455.978 488.061 455.674 489.007 455.471 490.059C455.37 490.481 455.37 490.798 455.471 491.219C455.775 489.85 456.282 488.588 456.992 487.325C457.296 486.692 457.701 486.271 458.309 485.849C458.512 485.745 458.817 485.746 459.121 485.956C459.324 486.272 459.425 486.587 459.323 486.902C459.019 488.692 457.803 490.165 456.181 490.585C454.457 491.007 452.733 490.167 452.023 488.588C451.821 488.271 451.821 487.851 451.922 487.535C452.023 487.218 452.328 487.114 452.53 487.114C453.139 487.218 453.747 487.534 454.153 487.954C455.268 488.902 456.079 490.06 456.688 491.219Z" fill="#253138"/>
<path d="M474.433 352.178C448.678 354.915 414.505 358.6 414.505 358.6L419.17 402.173C419.17 402.173 469.363 388.385 469.059 389.542C468.754 390.701 471.391 482.272 471.391 482.272H501.609L502.216 378.598C502.42 364.177 491.367 352.388 477.475 352.178C476.359 352.072 475.447 352.072 474.433 352.178Z" fill="#253138"/>
<path d="M352.752 369.756V383.228C352.752 392.385 362.791 402.174 371.714 402.174H378.609C383.983 402.174 392.501 398.069 396.861 394.806L399.497 392.806L431.033 494.06C431.033 494.06 467.03 487.324 467.03 486.166C467.03 485.008 442.592 403.226 431.337 365.23C426.774 349.758 410.753 340.706 395.948 345.969C395.441 346.179 394.934 346.39 394.427 346.6C378.203 353.442 352.752 369.756 352.752 369.756Z" fill="#253138"/>
<path d="M466.929 486.271C466.827 486.165 466.827 486.061 466.827 485.955C466.726 485.639 466.624 485.324 466.422 484.903C466.117 483.956 465.61 482.587 465.003 480.693C463.785 477.009 462.163 471.746 460.135 465.114C456.079 451.957 450.705 433.644 444.823 413.436C441.883 403.332 439.146 393.648 436.611 384.912C435.393 380.492 434.176 376.387 433.062 372.491C432.453 370.493 431.946 368.703 431.439 366.809C430.932 365.019 430.425 363.335 429.816 361.651C428.701 358.808 426.978 356.283 424.746 354.178C423.124 352.6 421.299 351.126 419.373 349.862C417.852 348.809 416.634 347.968 415.722 347.442L414.81 346.811C414.708 346.704 414.606 346.704 414.505 346.6C414.606 346.6 414.708 346.704 414.81 346.811L415.824 347.337C416.736 347.863 417.952 348.6 419.473 349.652C421.401 350.914 423.225 352.284 424.95 353.863C427.281 355.968 429.006 358.494 430.222 361.44C430.83 363.125 431.439 364.809 431.946 366.598C432.453 368.388 433.062 370.282 433.569 372.282L437.218 384.702C439.753 393.438 442.593 403.121 445.533 413.225C451.414 433.434 456.687 451.643 460.54 465.01L465.205 480.693L466.524 484.903C466.624 485.324 466.726 485.745 466.827 485.955C466.929 486.165 466.929 486.271 466.929 486.271Z" fill="#455A63"/>
<path d="M474.534 376.493C474.737 376.598 473.013 379.334 471.594 382.914C470.174 386.492 469.566 389.65 469.261 389.65C468.957 389.65 469.363 386.386 470.884 382.598C472.405 378.808 474.331 376.387 474.534 376.493Z" fill="#455A63"/>
<path d="M480.314 380.702C480.415 380.912 477.779 382.07 475.142 384.28C472.506 386.491 470.681 388.806 470.478 388.701C470.275 388.596 471.796 385.965 474.635 383.649C477.475 381.334 480.212 380.492 480.314 380.702Z" fill="#455A63"/>
<path d="M431.236 494.165C431.034 494.271 422.515 467.115 412.273 433.645C402.032 400.174 393.819 372.914 394.021 372.914C394.224 372.914 402.743 399.964 412.984 433.434C423.226 466.905 431.439 494.059 431.236 494.165Z" fill="#455A63"/>
<path d="M407.095 309.06C407.095 309.06 422.016 311.689 423.909 315.558C425.802 319.427 430.595 328.805 429.283 328.736C428.485 328.631 427.607 328.309 427.066 327.721L421.877 321.81C421.877 321.81 422.096 329.114 419.884 328.926C417.673 328.74 404.796 328.776 404.796 328.776L407.095 309.06Z" fill="#FFBD9D"/>
<path d="M339.923 292.486L339.031 327.205C339.27 334.471 345.2 340.242 352.276 340.03C352.983 340.05 353.692 339.967 354.302 339.777L407.457 330.099L407.863 307.812L362.024 315.625L361.957 291.977L339.923 292.486Z" fill="#7ADED6"/>
<path d="M369.155 337.44C369.358 337.34 369.66 337.349 369.864 337.252L371.888 336.789L379.675 335.346L407.282 330.308L406.973 330.611L407.495 307.567L407.888 307.995L398.587 309.603L362.195 315.74L361.79 315.833L361.799 315.416C362.338 304.997 362.836 296.351 363.176 290.203C363.346 287.183 363.498 284.892 363.639 283.122C363.656 282.391 363.771 281.769 363.782 281.248C363.787 281.04 363.792 280.83 363.897 280.625L363.883 281.251L363.84 283.128C363.803 284.796 363.648 287.192 363.579 290.215C363.339 296.366 362.941 305.015 362.403 315.434L362.008 315.109L398.402 308.867L407.704 307.26L408.108 307.166L408.097 307.688L407.574 330.734L407.567 331.047L407.265 331.038L379.767 335.767L371.982 337.105L369.859 337.46L369.155 337.44Z" fill="#253138"/>
<path d="M402.37 331.819C402.296 330.659 402.318 329.503 402.435 328.348C402.571 326.246 402.722 323.303 402.783 320.043C402.844 316.781 402.899 313.835 402.844 311.625C402.77 310.464 402.792 309.307 402.909 308.152C403.175 309.318 403.346 310.48 403.324 311.638C403.477 313.747 403.516 316.8 403.455 320.062C403.394 323.322 403.147 326.262 402.913 328.467C402.798 329.517 402.584 330.667 402.37 331.819Z" fill="#F9F9F9"/>
<path d="M399.519 332.297C399.444 331.137 399.37 329.979 399.487 328.824C399.532 326.404 399.68 323.566 399.736 320.516L399.889 312.204C399.814 311.045 399.932 309.889 400.049 308.736C400.315 309.9 400.39 311.061 400.369 312.217C400.426 314.324 400.468 317.272 400.407 320.535C400.347 323.795 400.197 326.738 399.967 328.837C400.041 329.998 399.828 331.148 399.519 332.297Z" fill="#F9F9F9"/>
<path d="M392.603 336.179L495.625 337.231L514.891 280.816L439.855 281.342L422.516 332.075L392.603 332.495V336.179Z" fill="#455A63"/>
<path d="M470.68 313.866C468.348 313.549 466.827 311.34 467.131 308.919C467.436 306.498 469.565 304.92 471.897 305.235C474.229 305.551 475.75 307.76 475.446 310.182C475.142 312.497 473.013 314.182 470.68 313.866Z" fill="white"/>
<path d="M381.363 184.398C382.286 180.627 382.685 177.767 386.186 176.417C389.788 175.065 397.449 176.104 400.528 178.407C402.581 179.908 402.555 181.402 404.893 182.167C408.755 183.408 410.508 182.287 412.634 178.748C414.046 176.406 418.607 180.95 418.924 183.9C419.15 186.005 417.954 191.231 415.732 191.191C418.275 192.054 421.498 196.525 419.321 199.932C417.842 202.25 413.813 203.507 411.18 203.063C408.544 202.515 406.09 201.13 404.129 199.21C402.07 197.397 400.208 195.371 398.052 193.769C395.894 192.063 393.249 191.099 390.526 191.178C386.901 191.491 383.838 194.388 382.301 197.761C380.763 201.133 380.447 204.991 380.33 208.739C380.214 212.487 380.2 216.336 379.272 219.899C379.181 220.318 378.991 220.843 378.59 220.959C377.99 221.184 377.471 220.575 377.155 219.96C373.683 213.716 371.508 206.81 370.538 199.661C370.04 195.515 368.539 192.94 370.68 189.446C372.82 185.952 378.487 182.193 381.363 184.398Z" fill="#753C07"/>
<path d="M376.203 201.6L375.251 244.051C375.112 251.283 376.252 261.934 387.166 261.612C396.661 260.599 399.156 251.203 399.306 244.495C399.336 241.351 399.375 238.627 399.468 238.31C399.468 238.31 409.769 237.483 410.831 226.767C411.317 221.62 411.479 210.931 411.461 201.19C411.428 190.821 403.92 182.139 393.985 181.384L392.981 181.309C382.356 181.098 376.152 190.394 376.203 201.6Z" fill="#FFBD9D"/>
<path d="M399.624 238.161C394.867 237.882 390.28 236.15 386.472 233.153C386.472 233.153 389.075 240.946 399.382 240.859L399.624 238.161Z" fill="#EB996D"/>
<path d="M408.204 208.158C408.111 208.487 407.408 208.751 406.598 208.732C405.788 208.755 405.175 208.487 405.168 208.202C405.262 207.873 405.965 207.609 406.775 207.628C407.584 207.605 408.197 207.833 408.204 208.158Z" fill="#253138"/>
<path d="M409.257 206.342C409.059 206.552 408.024 205.558 406.403 205.5C404.781 205.442 403.581 206.089 403.475 205.887C403.369 205.686 403.567 205.476 404.167 205.152C404.866 204.724 405.773 204.495 406.584 204.575C407.396 204.655 408.213 204.939 408.834 205.536C409.144 205.834 409.356 206.237 409.257 206.342Z" fill="#253138"/>
<path d="M392.636 207.244C392.542 207.573 391.839 207.837 391.029 207.819C390.22 207.841 389.606 207.573 389.599 207.247C389.693 206.918 390.395 206.654 391.206 206.672C392.016 206.691 392.628 206.918 392.636 207.244Z" fill="#253138"/>
<path d="M393.62 205.146C393.422 205.356 392.387 204.361 390.765 204.303C389.144 204.246 387.943 204.892 387.837 204.691C387.732 204.489 387.929 204.279 388.53 203.956C389.229 203.527 390.135 203.298 390.947 203.378C391.759 203.458 392.575 203.742 393.196 204.339C393.509 204.74 393.62 205.146 393.62 205.146Z" fill="#253138"/>
<path d="M398.368 217.962C399.259 217.726 400.055 217.702 400.951 217.676C401.349 217.664 401.747 217.652 401.84 217.334C401.93 216.912 401.821 216.495 401.712 216.079C401.391 215.039 401.067 213.894 400.743 212.749C399.445 208.065 398.563 204.207 398.762 204.202C398.961 204.196 400.139 207.939 401.437 212.623C401.761 213.768 402.085 214.913 402.307 215.956C402.518 216.475 402.532 217.104 402.344 217.634C402.252 217.952 401.958 218.17 401.659 218.179L400.963 218.2C400.067 218.226 399.169 218.148 398.368 217.962Z" fill="#253138"/>
<path d="M393.535 218.728C393.736 218.722 393.676 220.495 395.019 221.914C396.361 223.334 398.175 223.281 398.18 223.49C398.184 223.698 397.784 223.814 396.975 223.733C395.966 223.658 395.049 223.268 394.328 222.56C393.606 221.851 393.181 220.926 393.158 219.885C393.141 219.156 393.434 218.73 393.535 218.728Z" fill="#253138"/>
<path d="M394.526 198.709C394.333 199.12 392.805 198.755 390.884 198.908C388.962 199.061 387.45 199.406 387.239 199.006C387.133 198.805 387.427 198.391 388.129 198.068C389.83 197.108 391.956 197.051 393.698 197.918C394.312 198.207 394.625 198.604 394.526 198.709Z" fill="#253138"/>
<path d="M409.075 201.508C408.779 201.824 407.655 201.342 406.438 201.273C405.222 201.204 404.011 201.341 403.799 200.936C403.693 200.734 403.888 200.42 404.387 200.098C405.088 199.771 405.893 199.543 406.603 199.626C407.314 199.709 408.029 199.997 408.647 200.493C409.064 200.995 409.172 201.3 409.075 201.508Z" fill="#253138"/>
<path d="M376.179 209.294C375.976 209.196 369.282 206.57 368.945 213.897C368.608 221.224 375.719 220.075 375.714 219.866C375.71 219.657 376.179 209.294 376.179 209.294Z" fill="#FFBD9D"/>
<path d="M373.729 216.892C373.729 216.892 373.631 217 373.433 217.111C373.135 217.224 372.835 217.233 372.53 217.032C371.612 216.326 371.188 215.291 371.262 214.137C371.248 213.509 371.434 212.875 371.723 212.343C371.914 211.918 372.205 211.49 372.703 211.371C373.004 211.362 373.306 211.458 373.414 211.769C373.518 211.975 373.421 212.083 373.523 212.185C373.625 212.287 373.721 212.074 373.614 211.763C373.609 211.554 373.507 211.452 373.404 211.35C373.199 211.147 372.999 211.153 372.699 211.162C372.1 211.284 371.609 211.718 371.32 212.25C371.034 212.887 370.848 213.521 370.764 214.256C370.697 215.725 371.43 217.17 372.439 217.454C372.842 217.547 373.242 217.535 373.538 217.317C373.733 217.102 373.731 216.997 373.729 216.892Z" fill="#EB996D"/>
<path d="M414.244 198.98C409.518 199.843 404.738 198.319 401.328 194.885C399.052 192.457 397.362 189.182 394.304 187.92C392.166 187.15 389.848 187.321 387.852 188.313C385.855 189.306 384.072 190.811 382.596 192.516C384.136 198.081 382.352 203.949 380.556 209.403C380.37 210.031 380.078 210.559 379.583 210.989C378.69 211.638 377.463 210.946 376.838 210.133C375.897 208.706 375.353 206.956 375.315 205.295C374.922 201.359 375.235 197.402 376.359 193.526C377.485 189.754 379.627 186.265 382.597 183.686C386.463 180.562 391.278 179.177 396.136 179.66C400.892 180.147 405.484 182.3 408.993 185.627C410.744 187.135 412.098 188.966 412.953 191.122" fill="#753C07"/>
<path d="M553.728 234.927L534.462 318.708H539.836L558.899 234.927H553.728Z" fill="#253138"/>
<path d="M546.325 290.079C546.02 291.658 555.045 337.338 555.045 337.338H550.685L543.79 301.131L546.325 290.079Z" fill="#253138"/>
<path d="M520.164 397.753H610.613V497.324H520.164V397.753Z" fill="#7ADED6"/>
<path d="M610.613 412.278H615.075V416.909H610.613V412.278Z" fill="#253138"/>
<path d="M610.613 427.014H615.075V431.645H610.613V427.014Z" fill="#253138"/>
<path d="M610.613 441.644H615.075V446.275H610.613V441.644Z" fill="#253138"/>
<path d="M610.613 456.273H615.075V460.904H610.613V456.273Z" fill="#253138"/>
<path d="M615.278 442.907C615.682 442.801 616.189 442.696 616.596 442.591C617.813 442.381 619.131 442.17 620.449 442.17C622.376 442.17 624.301 442.696 625.925 443.644C628.054 445.012 629.169 447.433 628.967 449.959C628.864 451.221 628.46 452.485 627.85 453.538C627.243 454.59 626.432 455.431 625.519 456.064C623.998 457.221 622.173 457.958 620.245 458.274C619.029 458.484 617.71 458.484 616.393 458.379C615.886 458.379 615.48 458.274 614.973 458.169H616.393C617.61 458.169 618.928 458.062 620.145 457.853C621.97 457.536 623.694 456.8 625.215 455.643C627.04 454.274 628.257 452.169 628.46 449.854C628.662 447.537 627.648 445.223 625.62 443.959C623.998 442.907 622.273 442.381 620.348 442.381C619.131 442.381 617.813 442.381 616.596 442.591C616.189 442.907 615.682 443.012 615.278 442.907Z" fill="#253138"/>
<path d="M614.162 428.382C614.265 428.276 614.466 428.171 614.568 428.171C614.973 427.961 615.48 427.749 615.886 427.645C617.61 427.119 619.335 427.013 621.057 427.329C621.666 427.435 622.173 427.645 622.68 427.961C623.288 428.382 623.694 428.908 623.795 429.644C624.302 431.96 623.085 434.38 620.856 435.329C620.043 435.643 619.131 435.643 618.421 435.223C617.61 434.802 617.103 433.96 617.001 433.012C617.001 432.066 617.61 431.119 618.421 430.696C619.232 430.277 620.145 430.17 620.956 430.381C621.767 430.592 622.578 430.907 623.187 431.54C624.405 432.592 625.215 434.065 625.419 435.75C625.519 437.222 625.113 438.801 624.302 439.96C623.592 441.012 622.578 441.854 621.564 442.381C619.942 443.223 618.218 443.644 616.494 443.749C615.886 443.749 615.379 443.853 615.075 443.853H614.568C614.568 443.853 615.279 443.749 616.494 443.644C618.218 443.433 619.842 442.907 621.363 442.17C622.377 441.539 623.288 440.802 623.998 439.854C624.809 438.801 625.113 437.328 625.012 436.065C624.809 434.591 624.099 433.224 622.884 432.275C622.274 431.749 621.564 431.433 620.856 431.223C620.145 431.013 619.335 431.119 618.624 431.433C617.914 431.749 617.508 432.486 617.508 433.224C617.61 433.96 618.015 434.591 618.624 434.907C619.232 435.223 619.942 435.329 620.652 435.013C621.26 434.802 621.87 434.276 622.274 433.75C623.187 432.697 623.592 431.329 623.288 429.961C622.884 428.802 621.97 427.961 620.753 427.856C619.029 427.435 617.307 427.539 615.683 427.961C614.772 428.065 614.162 428.487 614.162 428.382Z" fill="#253138"/>
<path d="M614.162 414.173C614.466 414.066 614.872 413.963 615.176 413.963C616.089 413.857 617.001 413.963 617.914 414.279C619.232 414.7 620.349 415.542 621.26 416.595C622.377 417.963 622.984 419.645 622.984 421.434C623.085 423.224 622.578 424.909 621.564 426.383C620.753 427.54 619.638 428.382 618.321 428.908C617.508 429.328 616.596 429.434 615.683 429.434C615.379 429.434 614.973 429.434 614.669 429.328C615.886 429.328 617.103 429.014 618.218 428.488C619.435 427.962 620.449 427.014 621.26 425.961C623.085 423.226 622.984 419.435 620.956 416.804C620.145 415.752 619.029 415.016 617.814 414.49C616.596 414.279 615.379 414.066 614.162 414.173Z" fill="#253138"/>
<path d="M547.034 344.915C547.339 345.548 547.644 346.178 547.847 346.811C548.354 348.705 548.758 350.599 549.062 352.493C549.468 355.02 549.772 358.072 550.076 361.546C550.381 365.019 550.685 369.123 551.192 373.65C551.293 374.703 551.496 375.859 551.699 377.017C551.902 378.176 552.206 379.333 552.713 380.385C553.321 381.438 554.032 382.386 554.945 383.227C557.682 385.964 561.332 387.753 565.185 388.175C567.923 388.49 570.662 387.964 573.197 386.701C575.833 385.332 577.657 382.913 578.367 379.965C578.671 378.491 578.57 376.912 578.063 375.545C577.454 374.07 576.543 372.913 575.225 371.965C573.906 371.123 572.486 370.597 570.965 370.493C569.444 370.386 567.924 370.913 566.606 371.755C565.997 372.176 565.49 372.807 565.085 373.544C564.78 374.281 564.678 375.019 564.779 375.859C565.185 377.438 566.2 378.807 567.62 379.543C569.039 380.281 570.661 380.701 572.283 380.912C573.905 381.122 575.528 381.227 577.049 381.227C580.192 381.227 583.336 381.018 586.479 380.701C592.664 379.965 598.647 378.913 604.325 378.913C610.004 378.913 615.581 379.649 620.245 382.07C622.476 383.227 624.504 384.702 626.126 386.701C627.647 388.49 628.661 390.7 629.168 393.016C629.98 397.015 629.371 401.226 627.343 404.804C625.822 407.435 623.795 409.752 621.362 411.435C619.841 412.488 618.116 413.436 616.392 414.066C615.784 414.277 615.175 414.488 614.567 414.593L615.074 414.382C615.378 414.277 615.885 414.066 616.392 413.856C618.116 413.12 619.738 412.277 621.259 411.119C623.693 409.436 625.721 407.121 627.14 404.489C628.966 400.91 629.574 396.806 628.763 392.912C628.256 390.595 627.242 388.49 625.721 386.807C624.098 384.911 622.07 383.439 619.941 382.386C615.378 380.07 609.902 379.229 604.224 379.333C598.546 379.439 592.564 380.385 586.379 381.122C583.235 381.544 580.091 381.754 576.846 381.648C575.224 381.648 573.601 381.544 571.979 381.334C570.356 381.227 568.633 380.701 567.213 379.965C565.692 379.122 564.577 377.65 564.171 375.859C563.968 375.019 564.171 374.07 564.475 373.228C564.881 372.387 565.389 371.755 566.099 371.228C567.417 370.176 569.14 369.756 570.762 369.756C572.384 369.86 574.007 370.386 575.325 371.335C576.643 372.281 577.657 373.544 578.367 375.123C578.975 376.702 579.077 378.28 578.671 379.859C577.961 382.913 575.934 385.544 573.197 386.911C570.662 388.175 567.72 388.701 564.982 388.386C562.346 388.07 559.812 387.227 557.48 385.754C556.364 385.018 555.35 384.28 554.438 383.334C553.525 382.49 552.713 381.438 552.104 380.385C551.597 379.229 551.293 378.071 551.09 376.912C550.888 375.755 550.685 374.596 550.583 373.544C550.076 369.124 549.772 365.019 549.468 361.44C549.164 357.862 548.86 354.809 548.555 352.389C548.353 350.495 547.947 348.6 547.44 346.704C547.339 346.178 547.136 345.758 546.933 345.232C547.136 345.232 547.034 345.021 547.034 344.915Z" fill="#253138"/>
<path d="M605.542 493.218V492.797V491.534V486.587C605.542 482.271 605.543 475.956 605.442 467.957C605.442 451.959 605.339 429.119 605.339 401.753L605.542 401.963H523.815L524.118 401.648V493.113L523.915 492.902L583.134 493.007L599.762 493.113H604.125L599.661 493.218L583.134 493.323L523.712 493.428H523.512V493.218V401.753V401.437H523.815H605.542H605.745V401.648C605.745 429.013 605.646 451.959 605.646 467.957C605.646 475.956 605.645 482.271 605.542 486.587V491.429V492.692V493.218Z" fill="#253138"/>
<path d="M582.423 412.911C582.423 413.121 582.221 413.331 582.018 413.331C581.815 413.331 581.612 413.227 581.511 412.911C581.409 412.595 581.612 412.49 581.916 412.385H582.018C582.221 412.49 582.423 412.7 582.423 412.911Z" fill="#253138"/>
<path d="M584.756 412.911C584.756 413.121 584.553 413.331 584.351 413.331C584.147 413.331 583.945 413.227 583.844 412.911C583.742 412.595 583.945 412.49 584.249 412.385H584.351C584.553 412.49 584.756 412.7 584.756 412.911Z" fill="#253138"/>
<path d="M587.088 412.911C587.088 413.121 586.886 413.331 586.683 413.331C586.479 413.331 586.277 413.227 586.176 412.911C586.074 412.595 586.277 412.49 586.581 412.385H586.683C586.886 412.49 587.088 412.7 587.088 412.911Z" fill="#253138"/>
<path d="M589.422 412.91C589.422 413.12 589.218 413.33 589.015 413.33C588.811 413.33 588.608 413.12 588.608 412.91C588.608 412.699 588.811 412.489 589.015 412.489C589.218 412.489 589.422 412.699 589.422 412.91Z" fill="#253138"/>
<path d="M591.651 412.911C591.651 413.121 591.449 413.331 591.246 413.331C591.043 413.331 590.84 413.016 590.84 412.804C590.84 412.595 591.043 412.49 591.246 412.385C591.55 412.49 591.651 412.7 591.651 412.911Z" fill="#253138"/>
<path d="M593.984 412.911C593.984 413.121 593.78 413.331 593.578 413.331C593.374 413.331 593.171 413.016 593.171 412.804C593.171 412.595 593.374 412.49 593.578 412.385C593.78 412.49 593.984 412.7 593.984 412.911Z" fill="#253138"/>
<path d="M596.316 412.911C596.316 413.121 596.113 413.331 595.91 413.331C595.707 413.331 595.505 413.016 595.505 412.804C595.505 412.595 595.707 412.49 595.91 412.385C596.113 412.49 596.316 412.7 596.316 412.911Z" fill="#253138"/>
<path d="M594.795 414.173C595.019 414.173 595.2 414.361 595.2 414.593C595.2 414.825 595.019 415.015 594.795 415.015C594.571 415.015 594.389 414.825 594.389 414.593C594.389 414.361 594.571 414.173 594.795 414.173Z" fill="#253138"/>
<path d="M592.463 414.173C592.687 414.173 592.868 414.361 592.868 414.593C592.868 414.825 592.687 415.015 592.463 415.015C592.238 415.015 592.057 414.825 592.057 414.593C592.057 414.361 592.238 414.173 592.463 414.173Z" fill="#253138"/>
<path d="M590.536 414.594C590.536 414.804 590.333 415.015 590.13 415.015C589.927 415.015 589.725 414.804 589.725 414.594C589.725 414.383 589.927 414.174 590.13 414.174C590.333 414.068 590.536 414.278 590.536 414.594Z" fill="#253138"/>
<path d="M587.698 414.173C587.922 414.173 588.102 414.361 588.102 414.593C588.102 414.825 587.922 415.015 587.698 415.015C587.474 415.015 587.291 414.825 587.291 414.593C587.291 414.361 587.474 414.173 587.698 414.173Z" fill="#253138"/>
<path d="M585.366 414.173C585.59 414.173 585.77 414.361 585.77 414.593C585.77 414.825 585.59 415.015 585.366 415.015C585.14 415.015 584.959 414.825 584.959 414.593C584.959 414.361 585.14 414.173 585.366 414.173Z" fill="#253138"/>
<path d="M583.438 414.594C583.438 414.804 583.235 415.015 583.033 415.015C582.83 415.015 582.627 414.804 582.627 414.594C582.627 414.383 582.83 414.174 583.033 414.174C583.235 414.068 583.438 414.278 583.438 414.594Z" fill="#253138"/>
<path d="M582.424 416.383C582.424 416.593 582.221 416.804 582.018 416.804C581.815 416.804 581.612 416.593 581.612 416.383C581.612 416.172 581.815 415.962 582.018 415.962C582.221 415.962 582.424 416.172 582.424 416.383Z" fill="#253138"/>
<path d="M584.757 416.383C584.757 416.593 584.554 416.804 584.352 416.804C584.148 416.804 583.945 416.593 583.945 416.383C583.945 416.172 584.148 415.962 584.352 415.962C584.554 415.962 584.757 416.172 584.757 416.383Z" fill="#253138"/>
<path d="M587.089 416.383C587.089 416.593 586.887 416.804 586.684 416.804C586.48 416.804 586.277 416.593 586.277 416.383C586.277 416.172 586.48 415.962 586.684 415.962C586.887 415.962 587.089 416.172 587.089 416.383Z" fill="#253138"/>
<path d="M589.42 416.383C589.42 416.593 589.115 416.804 588.913 416.804C588.711 416.804 588.608 416.593 588.508 416.383C588.508 416.172 588.608 415.962 588.913 415.857C589.218 415.751 589.318 415.962 589.42 416.278V416.383Z" fill="#253138"/>
<path d="M591.651 416.383C591.651 416.593 591.449 416.804 591.246 416.804C591.043 416.804 590.84 416.593 590.84 416.383C590.84 416.172 591.043 415.962 591.246 415.962C591.55 415.962 591.651 416.172 591.651 416.383Z" fill="#253138"/>
<path d="M593.984 416.383C593.984 416.593 593.78 416.804 593.578 416.804C593.374 416.804 593.171 416.593 593.171 416.383C593.171 416.172 593.374 415.962 593.578 415.962C593.78 415.962 593.984 416.172 593.984 416.383Z" fill="#253138"/>
<path d="M596.316 416.383C596.316 416.593 596.113 416.804 595.91 416.804C595.707 416.804 595.505 416.593 595.505 416.383C595.505 416.172 595.707 415.962 595.91 415.962C596.113 415.962 596.316 416.172 596.316 416.383Z" fill="#253138"/>
<path d="M595.301 417.962C595.301 418.172 595.099 418.383 594.896 418.383C594.692 418.383 594.49 418.172 594.49 417.962C594.49 417.751 594.692 417.541 594.896 417.541C595.099 417.541 595.301 417.751 595.301 417.962Z" fill="#253138"/>
<path d="M592.868 417.962C592.868 418.172 592.665 418.383 592.463 418.383C592.259 418.383 592.057 418.172 592.057 417.962C592.057 417.751 592.259 417.541 592.463 417.541C592.665 417.541 592.868 417.751 592.868 417.962Z" fill="#253138"/>
<path d="M590.536 417.962C590.536 418.172 590.333 418.383 590.13 418.383C589.927 418.383 589.725 418.172 589.725 417.962C589.725 417.751 589.927 417.541 590.13 417.541C590.333 417.541 590.536 417.751 590.536 417.962Z" fill="#253138"/>
<path d="M588.204 417.962C588.204 418.172 588.001 418.383 587.798 418.383C587.594 418.383 587.393 418.172 587.393 417.962C587.393 417.751 587.594 417.541 587.798 417.541C588.001 417.541 588.204 417.751 588.204 417.962Z" fill="#253138"/>
<path d="M585.769 417.962C585.769 418.172 585.669 418.383 585.365 418.488C585.06 418.593 584.959 418.383 584.858 418.067V417.962C584.858 417.751 585.162 417.541 585.365 417.541C585.669 417.646 585.769 417.751 585.769 417.962Z" fill="#253138"/>
<path d="M583.438 417.962C583.438 418.172 583.235 418.383 583.033 418.383C582.83 418.383 582.627 418.172 582.627 417.962C582.627 417.751 582.83 417.541 583.033 417.541C583.235 417.541 583.438 417.751 583.438 417.962Z" fill="#253138"/>
<path d="M582.424 419.855C582.424 420.066 582.221 420.276 582.018 420.276C581.815 420.276 581.612 420.066 581.612 419.855C581.612 419.645 581.815 419.435 582.018 419.435C582.221 419.435 582.424 419.54 582.424 419.855Z" fill="#253138"/>
<path d="M584.757 419.855C584.757 420.066 584.554 420.276 584.352 420.276C584.148 420.276 583.945 420.066 583.945 419.855C583.945 419.645 584.148 419.435 584.352 419.435C584.554 419.435 584.757 419.54 584.757 419.855Z" fill="#253138"/>
<path d="M587.089 419.855C587.089 420.066 586.887 420.276 586.684 420.276C586.48 420.276 586.277 420.066 586.277 419.855C586.277 419.645 586.48 419.435 586.684 419.435C586.887 419.435 587.089 419.54 587.089 419.855Z" fill="#253138"/>
<path d="M589.42 419.856C589.42 420.067 589.318 420.277 589.015 420.383C588.711 420.489 588.608 420.277 588.508 419.963V419.856C588.508 419.646 588.811 419.437 589.015 419.437C589.218 419.437 589.318 419.646 589.42 419.856Z" fill="#253138"/>
<path d="M591.651 419.856C591.651 420.067 591.449 420.278 591.246 420.278C591.043 420.278 590.84 420.067 590.84 419.856C590.84 419.646 591.043 419.437 591.246 419.437C591.55 419.33 591.651 419.541 591.651 419.856Z" fill="#253138"/>
<path d="M593.984 419.856C593.984 420.067 593.78 420.278 593.578 420.278C593.374 420.278 593.171 420.067 593.171 419.856C593.171 419.646 593.374 419.437 593.578 419.437C593.78 419.33 593.984 419.541 593.984 419.856Z" fill="#253138"/>
<path d="M596.316 419.856C596.316 420.067 596.113 420.278 595.91 420.278C595.707 420.278 595.505 420.067 595.505 419.856C595.505 419.646 595.707 419.437 595.91 419.437C596.113 419.33 596.316 419.541 596.316 419.856Z" fill="#253138"/>
<path d="M594.795 421.014C595.019 421.014 595.2 421.203 595.2 421.434C595.2 421.667 595.019 421.856 594.795 421.856C594.571 421.856 594.389 421.667 594.389 421.434C594.389 421.203 594.571 421.014 594.795 421.014Z" fill="#253138"/>
<path d="M592.463 421.014C592.687 421.014 592.868 421.203 592.868 421.434C592.868 421.667 592.687 421.856 592.463 421.856C592.238 421.856 592.057 421.667 592.057 421.434C592.057 421.203 592.238 421.014 592.463 421.014Z" fill="#253138"/>
<path d="M590.536 421.435C590.536 421.646 590.333 421.856 590.13 421.856C589.927 421.856 589.724 421.751 589.623 421.435C589.522 421.119 589.724 421.015 590.029 420.909H590.13C590.333 421.015 590.536 421.225 590.536 421.435Z" fill="#253138"/>
<path d="M587.698 421.014C587.922 421.014 588.102 421.203 588.102 421.434C588.102 421.667 587.922 421.856 587.698 421.856C587.474 421.856 587.291 421.667 587.291 421.434C587.291 421.203 587.474 421.014 587.698 421.014Z" fill="#253138"/>
<path d="M585.366 421.014C585.59 421.014 585.77 421.203 585.77 421.434C585.77 421.667 585.59 421.856 585.366 421.856C585.14 421.856 584.959 421.667 584.959 421.434C584.959 421.203 585.14 421.014 585.366 421.014Z" fill="#253138"/>
<path d="M583.438 421.435C583.438 421.646 583.235 421.856 583.033 421.856C582.83 421.856 582.627 421.542 582.627 421.33C582.627 421.119 582.83 421.015 583.033 420.909C583.235 421.015 583.438 421.225 583.438 421.435Z" fill="#253138"/>
<path d="M550.483 314.603C551.091 314.603 551.598 314.71 552.105 314.919C553.626 315.445 555.046 316.393 556.06 317.656C557.682 319.655 558.899 322.077 559.609 324.602C560.623 327.97 561.332 331.339 561.839 334.812C562.955 343.758 563.158 352.915 562.448 361.967C562.346 364.599 561.535 367.23 560.217 369.441C559.507 370.598 558.493 371.546 557.378 372.282C556.161 373.019 554.843 373.44 553.423 373.229C552.004 373.125 550.685 372.493 549.671 371.44C549.164 370.914 548.759 370.282 548.556 369.545C548.353 368.809 548.353 368.072 548.556 367.336C548.962 365.862 549.976 364.599 551.395 364.072C552.105 363.757 552.916 363.757 553.626 364.072C554.336 364.388 554.944 364.809 555.451 365.441C556.364 366.704 556.668 368.282 556.465 369.756C556.262 371.23 555.755 372.599 554.944 373.861C550.787 381.439 541.559 384.281 534.157 380.071C532.028 378.808 530.203 377.229 528.682 375.23C527.262 373.335 526.147 371.335 525.335 369.124C524.017 365.125 523.206 360.915 523.105 356.705C522.902 352.81 523.105 349.337 522.699 346.286C522.496 344.916 522.192 343.548 521.786 342.18C521.381 341.023 520.772 340.075 520.063 339.127C519.049 337.865 517.832 336.813 516.311 336.18C515.804 335.97 515.195 335.864 514.688 335.76C515.297 335.76 515.804 335.864 516.311 336.075C517.832 336.601 519.15 337.654 520.164 338.918C520.874 339.864 521.482 340.917 521.989 342.075C522.496 343.443 522.8 344.811 523.003 346.286C523.409 349.337 523.206 352.81 523.409 356.705C523.51 360.915 524.321 365.02 525.64 369.019C526.451 371.23 527.566 373.229 528.884 375.019C530.304 376.913 532.129 378.597 534.259 379.755C541.458 383.755 550.381 381.019 554.336 373.651C555.046 372.387 555.553 371.124 555.755 369.651C555.958 368.282 555.654 366.81 554.843 365.651C554.437 365.125 553.93 364.705 553.322 364.388C552.713 364.179 552.004 364.179 551.395 364.388C550.178 364.914 549.266 365.967 548.86 367.336C548.556 368.703 548.962 370.072 549.874 371.02C550.787 371.966 552.004 372.599 553.322 372.703C554.64 372.808 555.857 372.493 556.972 371.756C558.088 371.02 559 370.177 559.71 369.019C561.028 366.81 561.738 364.283 561.941 361.757C562.651 352.81 562.448 343.758 561.434 334.812C560.927 331.339 560.217 327.97 559.304 324.709C558.696 322.182 557.479 319.866 555.857 317.867C554.843 316.603 553.525 315.656 552.004 315.13C551.598 314.919 550.99 314.71 550.483 314.603Z" fill="#A5A5A5"/>
<path d="M509 330H542V335H509V330Z" fill="#BBB8B8"/>
<path d="M255.409 398.7H299.315V496.902H255.409V398.7Z" fill="#253138"/>
<path d="M295.563 486.482V486.062V484.798V480.061C295.563 475.956 295.563 470.062 295.461 462.484C295.461 447.538 295.36 426.487 295.36 401.963L295.563 402.174H258.856L259.16 401.859C259.16 434.698 259.16 464.485 259.059 486.272L258.856 486.062L285.727 486.166H293.028H294.954C295.461 486.482 295.664 486.482 295.563 486.482L295.056 486.377H293.129H285.828L258.856 486.482H258.653V486.272C258.653 464.379 258.653 434.592 258.552 401.859V401.648H295.867V401.859C295.867 426.487 295.766 447.538 295.766 462.59C295.766 470.062 295.766 475.956 295.664 480.061V484.694V485.85C295.664 486.062 295.563 486.482 295.563 486.482Z" fill="#455A63"/>
<path d="M293.332 409.226V408.173C293.332 407.541 293.332 406.488 293.231 405.331L293.332 405.436C287.654 405.542 275.486 405.542 261.391 405.542L261.695 405.226V407.226V409.12L261.493 408.805C270.416 408.805 278.426 408.91 284.105 408.91L290.899 409.015H292.724H293.434H292.825H291L284.308 409.12C278.528 409.226 270.517 409.226 261.493 409.226H261.188V405.121L261.493 404.805C275.587 404.805 287.755 404.909 293.434 404.909V405.016C293.434 406.279 293.434 407.226 293.332 407.963V409.226Z" fill="#455A63"/>
<path d="M264.534 412.069C264.534 412.174 263.825 412.385 263.115 412.385C262.405 412.385 261.594 412.278 261.594 412.069C261.594 411.858 262.304 411.752 263.115 411.752C263.926 411.752 264.534 411.858 264.534 412.069Z" fill="#455A63"/>
<path d="M292.522 417.12C292.522 417.225 285.728 417.435 277.312 417.435C268.895 417.435 262.102 417.33 262.102 417.12C262.102 416.909 268.895 416.804 277.312 416.804C285.728 416.804 292.522 416.909 292.522 417.12Z" fill="#455A63"/>
<path d="M292.622 423.224C292.622 423.33 285.93 423.54 277.716 423.54C269.503 423.54 262.811 423.435 262.811 423.224C262.811 423.014 269.503 422.909 277.716 422.909C285.93 422.909 292.622 423.014 292.622 423.224Z" fill="#455A63"/>
<path d="M291.812 448.316C291.812 448.421 285.119 448.632 276.906 448.632C268.692 448.632 262 448.526 262 448.316C262 448.105 268.692 448 276.906 448C285.119 448 291.812 448.105 291.812 448.316Z" fill="#455A63"/>
<path d="M291.812 456.316C291.812 456.421 285.119 456.632 276.906 456.632C268.692 456.632 262 456.526 262 456.316C262 456.105 268.692 456 276.906 456C285.119 456 291.812 456.105 291.812 456.316Z" fill="#455A63"/>
<path d="M277.312 435.013C278.655 435.013 279.745 436.143 279.745 437.538C279.745 438.935 278.655 440.065 277.312 440.065C275.967 440.065 274.878 438.935 274.878 437.538C274.878 436.143 275.967 435.013 277.312 435.013Z" fill="#EFEDF5"/>
<path d="M270.416 437.434C269.402 437.749 268.286 437.749 267.171 437.749C266.055 437.855 265.041 437.749 264.027 437.434C265.041 437.118 266.157 437.118 267.272 437.118C268.286 437.118 269.402 437.118 270.416 437.434Z" fill="#455A63"/>
<path d="M290.088 436.697C289.074 437.013 288.06 437.013 287.046 437.013C286.032 437.118 285.018 437.013 284.004 436.697C285.018 436.381 286.032 436.381 287.046 436.381C288.06 436.381 289.074 436.486 290.088 436.697Z" fill="#455A63"/>
<path d="M256.93 447.959C256.423 447.854 255.814 447.749 255.307 447.643C253.786 447.222 252.265 446.486 250.947 445.538C248.818 444.065 247.094 442.065 245.674 439.855C243.951 436.907 242.632 433.645 241.821 430.171C240.807 426.066 240.402 421.856 240.604 417.646C240.909 412.699 242.43 408.068 245.269 404.068C246.79 401.963 248.615 400.069 250.744 398.595C251.86 397.859 253.077 397.227 254.293 396.806C255.612 396.385 256.828 396.069 258.248 395.859C260.884 395.438 263.622 395.543 266.36 395.332C269.098 395.227 271.836 394.596 274.371 393.438C276.906 392.28 278.731 389.859 279.339 387.123C280.353 382.386 277.514 377.545 272.951 376.492C272.241 376.282 271.531 376.282 270.822 376.282C269.605 376.387 268.388 376.808 267.475 377.545C266.563 378.281 266.056 379.439 266.056 380.702C266.36 383.123 268.185 385.018 270.619 385.228C272.85 385.228 274.979 384.281 276.399 382.492C277.717 380.808 278.731 378.913 279.238 376.808C279.745 374.913 280.15 372.914 280.455 370.914C281.164 364.914 281.367 358.81 280.962 352.705C280.86 350.6 280.759 348.916 280.759 347.758C280.759 347.232 280.759 346.811 280.657 346.495V346.074C280.657 346.179 280.759 346.39 280.759 346.495C280.759 346.811 280.86 347.232 280.86 347.758C280.962 348.916 281.063 350.6 281.164 352.705C281.57 358.81 281.469 364.914 280.759 371.019C280.455 373.019 280.15 375.019 279.643 377.018C279.136 379.229 278.122 381.229 276.804 382.913C275.283 384.807 273.052 385.86 270.619 385.754C267.982 385.544 265.954 383.439 265.65 380.808C265.549 379.439 266.157 378.071 267.273 377.229C268.287 376.387 269.605 375.861 270.923 375.755C275.993 375.65 280.049 379.86 280.15 385.123C280.15 387.333 279.441 389.438 278.122 391.228C277.21 392.385 275.993 393.333 274.776 393.964C272.241 395.227 269.402 395.859 266.563 395.964C263.825 396.175 261.087 396.069 258.451 396.49C257.133 396.701 255.916 397.017 254.598 397.438C253.381 397.859 252.265 398.49 251.15 399.227C249.021 400.595 247.195 402.384 245.776 404.49C243.038 408.384 241.517 413.015 241.213 417.857C240.909 422.067 241.314 426.277 242.328 430.277C243.038 433.645 244.356 436.907 246.08 439.855C247.398 442.065 249.122 443.959 251.15 445.538C252.468 446.486 253.888 447.222 255.409 447.749C255.916 447.854 256.321 447.959 256.626 448.064C256.626 447.854 256.828 447.854 256.93 447.959Z" fill="#253138"/>
<path d="M241.923 246.399H345.959V320.603H241.923V246.399Z" fill="#253138"/>
<path d="M285.931 310.498H300.127V338.496H285.931V310.498Z" fill="#253138"/>
<path d="M217.034 425.133C220.684 423.345 223.331 423.146 227.387 423.988C229.516 424.408 232.251 425.823 233.772 427.506C235.293 429.191 236.77 432.598 235.148 434.07C234.032 434.807 228.733 431.201 227.415 431.096C224.271 431.096 223.166 431.431 221.121 433.771C219.701 434.93 219.255 437.568 217.632 438.2C215.908 438.62 213.328 438.17 212.415 436.487C211.604 434.909 210.834 432.753 211.341 430.963C211.747 428.436 214.904 426.292 217.034 425.133Z" fill="#04BD00"/>
<path d="M207.751 408.7C209.982 411.963 214.237 410.912 216.265 408.912C218.293 406.912 219.105 404.064 219.815 401.221C221.537 394.912 221.638 388.547 222.233 381.745C222.652 379.6 223.209 375.185 221.891 373.712C220.573 372.239 218.598 374.987 217.229 376.79C215.747 378.802 213.787 382.61 212.456 384.65C208.747 390.337 205.631 392.608 205.627 399.436C205.623 402.699 205.926 406.068 207.751 408.7Z" fill="#04BD00"/>
<path d="M201.667 413.436C203.999 410.278 204.607 406.175 203.492 402.491C202.275 398.807 200.146 395.543 197.205 393.018C193.446 389.565 191.368 387.914 187.095 386.839C184.034 386.05 180.177 386.383 177.56 386.958C175.871 387.321 172.191 389.231 171.278 390.809C170.061 393.125 172.802 395.961 174.982 397.244C178.503 399.337 182.604 403.437 185.341 407.121C187.572 410.068 190.107 413.016 193.453 414.278C196.8 415.541 200.349 415.436 202.072 413.016" fill="#04BD00"/>
<path d="M207.548 458.169C207.649 457.642 207.751 457.222 207.751 456.696C207.852 455.644 207.953 454.274 208.156 452.59C208.359 450.59 208.663 448.591 209.069 446.591C209.576 444.17 210.286 441.854 211.198 439.539C212.111 437.224 213.226 435.119 214.646 433.224C215.761 431.645 217.282 430.276 219.006 429.434C220.121 428.804 221.44 428.382 222.656 428.278C223.163 428.278 223.569 428.171 224.076 428.066H222.656C221.338 428.171 220.02 428.487 218.803 429.119C216.978 429.961 215.457 431.329 214.24 432.908C212.719 434.908 211.604 437.013 210.691 439.434C209.779 441.749 209.17 444.17 208.663 446.591C208.258 448.591 208.055 450.59 207.852 452.59C207.751 454.274 207.649 455.748 207.649 456.696C207.548 457.116 207.548 457.642 207.548 458.169Z" fill="#253138"/>
<path d="M207.852 455.011V454.379V452.38C207.852 450.696 207.852 448.169 207.953 445.118C208.055 439.012 208.562 432.381 209.576 423.119C210.488 414.383 211.807 404.174 213.125 397.543C213.429 396.069 213.632 394.701 213.936 393.544C214.24 392.385 214.443 391.333 214.646 390.491C214.849 389.649 214.95 389.017 215.051 388.596C215.153 388.386 215.153 388.175 215.153 387.965C215.051 388.175 214.95 388.386 214.95 388.596C214.747 389.122 214.646 389.754 214.443 390.491C214.24 391.227 213.936 392.385 213.632 393.544C213.328 394.701 213.023 396.069 212.719 397.543C211.097 405.331 209.88 413.225 209.069 421.225C208.055 430.487 207.548 438.907 207.548 445.118C207.548 448.169 207.548 450.696 207.649 452.38C207.649 453.222 207.751 453.853 207.751 454.379C207.751 454.591 207.751 454.8 207.852 455.011Z" fill="#253138"/>
<path d="M207.852 438.697C207.954 437.96 207.954 437.329 207.852 436.592C207.751 434.697 207.548 432.803 207.244 431.013C206.838 428.278 206.23 425.54 205.52 422.909C204.709 419.646 203.593 416.383 202.275 413.226C200.044 407.437 196.698 402.174 192.642 397.648C191.932 396.911 191.121 396.176 190.411 395.438C190.107 395.123 189.702 394.806 189.397 394.597L188.485 393.964C187.978 393.544 187.369 393.122 186.862 392.806C188.789 394.385 190.614 396.069 192.338 397.859C196.293 402.491 199.436 407.647 201.768 413.436C203.086 416.488 204.202 419.751 205.114 423.015C205.926 426.066 206.534 428.804 206.94 431.119C207.345 433.434 207.548 435.329 207.751 436.698C207.649 437.329 207.751 437.96 207.852 438.697Z" fill="#253138"/>
<path d="M192.643 467.536L194.164 489.955H222.049L223.57 467.536H192.643Z" fill="#253138"/>
<path d="M189.904 458.695H226.915V467.536H189.904V458.695Z" fill="#253138"/>
<path d="M189.904 489.113V491.534H191.628H226.307V489.113H189.904Z" fill="#455A63"/>
<path d="M193.352 495.849L191.628 491.534H224.989L222.961 495.849H193.352Z" fill="#455A63"/>
<path d="M223.062 474.905C223.062 475.01 222.961 475.01 222.961 475.115L222.555 475.642L220.933 477.747L220.831 477.852L220.73 477.747L216.775 472.062H216.978L213.024 477.852L212.922 478.062L212.821 477.852C211.401 476.063 209.779 474.167 208.156 472.062H208.461C208.359 472.166 208.258 472.272 208.258 472.378L204.1 477.747L203.999 477.956L203.898 477.747L199.943 471.958H200.146L195.279 477.747L195.177 477.852L195.076 477.747C194.467 476.694 193.96 475.747 193.555 475.115L193.149 474.378L193.048 474.167C193.048 474.167 193.149 474.271 193.251 474.378L193.656 475.01L195.279 477.641H195.076L199.842 471.851L199.943 471.746L200.044 471.851L203.999 477.536H203.695L207.852 472.166L208.055 471.851L208.156 471.64L208.258 471.851L212.922 477.641H212.618L216.573 471.958L216.674 471.746L216.775 471.958L220.629 477.747H220.73L222.454 475.642L222.859 475.115C222.961 474.905 223.062 474.799 223.062 474.905Z" fill="#DFDFDF"/>
<path d="M223.975 467.325C223.975 467.431 216.978 467.536 208.46 467.536C199.943 467.536 192.946 467.431 192.946 467.325C192.946 467.22 199.943 467.115 208.46 467.115C216.978 467.115 223.975 467.325 223.975 467.325Z" fill="#455A63"/>
<path d="M225.394 491.85C225.394 491.956 217.789 492.06 208.46 492.06C199.131 492.06 191.526 491.956 191.526 491.85C191.526 491.744 199.131 491.639 208.46 491.639C217.789 491.639 225.394 491.744 225.394 491.85Z" fill="#253138"/>
<path d="M529.878 297.999C531.533 297.189 532.732 297.099 534.571 297.48C535.536 297.671 536.776 298.312 537.465 299.075C538.155 299.839 538.825 301.383 538.089 302.051C537.583 302.385 535.181 300.75 534.584 300.702C533.159 300.702 532.657 300.854 531.731 301.915C531.087 302.44 530.884 303.636 530.149 303.923C529.368 304.113 528.198 303.909 527.784 303.146C527.416 302.431 527.067 301.453 527.297 300.642C527.481 299.497 528.913 298.525 529.878 297.999Z" fill="#04BD00"/>
<path d="M525.669 290.55C526.68 292.03 528.609 291.553 529.528 290.646C530.448 289.74 530.816 288.449 531.138 287.16C531.918 284.3 531.964 281.415 532.234 278.331C532.424 277.359 532.676 275.358 532.079 274.69C531.481 274.022 530.586 275.268 529.965 276.085C529.293 276.997 528.405 278.723 527.802 279.648C526.121 282.226 524.708 283.255 524.706 286.351C524.704 287.83 524.841 289.357 525.669 290.55Z" fill="#04BD00"/>
<path d="M522.911 292.697C523.968 291.266 524.244 289.405 523.739 287.735C523.187 286.065 522.222 284.586 520.889 283.441C519.185 281.876 518.243 281.128 516.306 280.64C514.918 280.282 513.17 280.434 511.983 280.694C511.218 280.859 509.55 281.724 509.136 282.44C508.584 283.49 509.827 284.776 510.815 285.357C512.411 286.306 514.27 288.164 515.511 289.834C516.522 291.17 517.671 292.507 519.188 293.079C520.705 293.651 522.314 293.604 523.095 292.507" fill="#04BD00"/>
<path d="M525.577 312.975C525.623 312.736 525.669 312.546 525.669 312.307C525.715 311.83 525.761 311.209 525.853 310.446C525.945 309.54 526.083 308.633 526.267 307.726C526.496 306.629 526.818 305.579 527.232 304.53C527.646 303.481 528.151 302.526 528.795 301.667C529.3 300.951 529.99 300.331 530.771 299.949C531.277 299.664 531.874 299.472 532.426 299.425C532.656 299.425 532.84 299.377 533.07 299.329H532.426C531.828 299.377 531.231 299.52 530.679 299.806C529.852 300.188 529.162 300.808 528.611 301.524C527.921 302.43 527.416 303.385 527.002 304.482C526.588 305.532 526.313 306.629 526.083 307.726C525.899 308.633 525.807 309.54 525.715 310.446C525.669 311.209 525.623 311.877 525.623 312.307C525.577 312.498 525.577 312.736 525.577 312.975Z" fill="#253138"/>
<path d="M525.715 311.543V311.257V310.351C525.715 309.587 525.715 308.442 525.761 307.059C525.807 304.291 526.037 301.285 526.496 297.087C526.91 293.126 527.508 288.498 528.105 285.492C528.243 284.824 528.335 284.204 528.473 283.68C528.611 283.155 528.703 282.677 528.795 282.296C528.887 281.914 528.933 281.628 528.979 281.437C529.025 281.341 529.025 281.246 529.025 281.151C528.979 281.246 528.933 281.341 528.933 281.437C528.841 281.675 528.795 281.962 528.703 282.296C528.611 282.63 528.473 283.155 528.335 283.68C528.197 284.204 528.059 284.824 527.921 285.492C527.186 289.023 526.634 292.602 526.267 296.228C525.807 300.426 525.577 304.243 525.577 307.059C525.577 308.442 525.577 309.587 525.623 310.351C525.623 310.732 525.669 311.019 525.669 311.257C525.669 311.353 525.669 311.448 525.715 311.543Z" fill="#253138"/>
<path d="M525.715 304.148C525.761 303.814 525.761 303.528 525.715 303.194C525.669 302.335 525.577 301.476 525.439 300.665C525.255 299.425 524.98 298.184 524.658 296.991C524.29 295.512 523.785 294.033 523.187 292.602C522.176 289.977 520.659 287.592 518.82 285.54C518.498 285.206 518.131 284.873 517.809 284.538C517.671 284.396 517.487 284.252 517.349 284.157L516.936 283.87C516.706 283.68 516.43 283.489 516.2 283.345C517.074 284.061 517.901 284.825 518.682 285.636C520.475 287.735 521.9 290.073 522.957 292.697C523.555 294.081 524.06 295.56 524.474 297.039C524.842 298.423 525.118 299.664 525.301 300.713C525.485 301.762 525.577 302.621 525.669 303.242C525.623 303.528 525.669 303.814 525.715 304.148Z" fill="#253138"/>
<path d="M518.82 317.221L519.51 327.384H532.15L532.84 317.221H518.82Z" fill="#253138"/>
<path d="M517.579 313.213H534.357V317.221H517.579V313.213Z" fill="#253138"/>
<path d="M517.579 327.002V328.1H518.361H534.081V327.002H517.579Z" fill="#455A63"/>
<path d="M519.142 330.056L518.36 328.1H533.483L532.564 330.056H519.142Z" fill="#455A63"/>
<path d="M532.61 320.562C532.61 320.609 532.564 320.609 532.564 320.657L532.38 320.896L531.644 321.85L531.598 321.898L531.553 321.85L529.76 319.273H529.852L528.059 321.898L528.013 321.993L527.967 321.898C527.324 321.086 526.588 320.227 525.853 319.273H525.991C525.945 319.32 525.899 319.368 525.899 319.416L524.014 321.85L523.968 321.945L523.922 321.85L522.13 319.226H522.222L520.015 321.85L519.969 321.898L519.923 321.85C519.647 321.373 519.418 320.943 519.234 320.657L519.05 320.323L519.004 320.227C519.004 320.227 519.05 320.274 519.096 320.323L519.28 320.609L520.015 321.802H519.923L522.084 319.177L522.13 319.13L522.176 319.177L523.968 321.754H523.83L525.715 319.32L525.807 319.177L525.853 319.082L525.899 319.177L528.013 321.802H527.875L529.668 319.226L529.714 319.13L529.76 319.226L531.507 321.85H531.553L532.334 320.896L532.518 320.657C532.564 320.562 532.61 320.513 532.61 320.562Z" fill="#DFDFDF"/>
<path d="M533.023 317.126C533.023 317.173 529.852 317.221 525.991 317.221C522.13 317.221 518.958 317.173 518.958 317.126C518.958 317.078 522.13 317.03 525.991 317.03C529.852 317.03 533.023 317.126 533.023 317.126Z" fill="#455A63"/>
<path d="M533.667 328.243C533.667 328.291 530.22 328.338 525.991 328.338C521.762 328.338 518.314 328.291 518.314 328.243C518.314 328.195 521.762 328.147 525.991 328.147C530.22 328.147 533.667 328.195 533.667 328.243Z" fill="#253138"/>
<path d="M252.569 335.443V345.548H306.21V495.428H311.179V345.548L535.374 346.705V495.428H540.14V346.388L574.819 346.705V334.601L252.569 335.443Z" fill="#253138"/>
<path d="M286.842 343.547L308.035 359.336L306.21 361.231L284.814 344.494L286.842 343.547Z" fill="#253138"/>
<path d="M560.116 345.021L535.577 363.23L537.403 365.019L562.144 345.969L560.116 345.021Z" fill="#253138"/>
<path d="M330.546 331.759H386.012V335.969H330.546V331.759Z" fill="#253138"/>
</g>
<g clip-path="url(#clip1_432_10)">
<circle cx="571.5" cy="458.5" r="1.5" fill="#7ADED6"/>
<circle cx="584.5" cy="458.5" r="1.5" fill="#7ADED6"/>
<circle cx="597.5" cy="458.5" r="1.5" fill="#7ADED6"/>
<circle cx="610.5" cy="458.5" r="1.5" fill="#7ADED6"/>
<circle cx="623.5" cy="458.5" r="1.5" fill="#7ADED6"/>
<circle cx="636.5" cy="458.5" r="1.5" fill="#7ADED6"/>
<circle cx="649.5" cy="458.5" r="1.5" fill="#7ADED6"/>
<circle cx="662.5" cy="458.5" r="1.5" fill="#7ADED6"/>
<circle cx="571.5" cy="471.5" r="1.5" fill="#7ADED6"/>
<circle cx="584.5" cy="471.5" r="1.5" fill="#7ADED6"/>
<circle cx="597.5" cy="471.5" r="1.5" fill="#7ADED6"/>
<circle cx="610.5" cy="471.5" r="1.5" fill="#7ADED6"/>
<circle cx="623.5" cy="471.5" r="1.5" fill="#7ADED6"/>
<circle cx="636.5" cy="471.5" r="1.5" fill="#7ADED6"/>
<circle cx="649.5" cy="471.5" r="1.5" fill="#7ADED6"/>
<circle cx="662.5" cy="471.5" r="1.5" fill="#7ADED6"/>
<circle cx="571.5" cy="484.5" r="1.5" fill="#7ADED6"/>
<circle cx="584.5" cy="484.5" r="1.5" fill="#7ADED6"/>
<circle cx="597.5" cy="484.5" r="1.5" fill="#7ADED6"/>
<circle cx="610.5" cy="484.5" r="1.5" fill="#7ADED6"/>
<circle cx="623.5" cy="484.5" r="1.5" fill="#7ADED6"/>
<circle cx="636.5" cy="484.5" r="1.5" fill="#7ADED6"/>
<circle cx="649.5" cy="484.5" r="1.5" fill="#7ADED6"/>
<circle cx="662.5" cy="484.5" r="1.5" fill="#7ADED6"/>
<circle cx="571.5" cy="497.5" r="1.5" fill="#7ADED6"/>
<circle cx="584.5" cy="497.5" r="1.5" fill="#7ADED6"/>
<circle cx="597.5" cy="497.5" r="1.5" fill="#7ADED6"/>
<circle cx="610.5" cy="497.5" r="1.5" fill="#7ADED6"/>
<circle cx="623.5" cy="497.5" r="1.5" fill="#7ADED6"/>
<circle cx="636.5" cy="497.5" r="1.5" fill="#7ADED6"/>
<circle cx="649.5" cy="497.5" r="1.5" fill="#7ADED6"/>
<circle cx="662.5" cy="497.5" r="1.5" fill="#7ADED6"/>
<circle cx="571.5" cy="510.5" r="1.5" fill="#7ADED6"/>
<circle cx="584.5" cy="510.5" r="1.5" fill="#7ADED6"/>
<circle cx="597.5" cy="510.5" r="1.5" fill="#7ADED6"/>
<circle cx="610.5" cy="510.5" r="1.5" fill="#7ADED6"/>
<circle cx="623.5" cy="510.5" r="1.5" fill="#7ADED6"/>
<circle cx="636.5" cy="510.5" r="1.5" fill="#7ADED6"/>
<circle cx="649.5" cy="510.5" r="1.5" fill="#7ADED6"/>
<circle cx="662.5" cy="510.5" r="1.5" fill="#7ADED6"/>
<circle cx="571.5" cy="523.5" r="1.5" fill="#7ADED6"/>
<circle cx="584.5" cy="523.5" r="1.5" fill="#7ADED6"/>
<circle cx="597.5" cy="523.5" r="1.5" fill="#7ADED6"/>
<circle cx="610.5" cy="523.5" r="1.5" fill="#7ADED6"/>
<circle cx="623.5" cy="523.5" r="1.5" fill="#7ADED6"/>
<circle cx="636.5" cy="523.5" r="1.5" fill="#7ADED6"/>
<circle cx="649.5" cy="523.5" r="1.5" fill="#7ADED6"/>
<circle cx="662.5" cy="523.5" r="1.5" fill="#7ADED6"/>
<circle cx="571.5" cy="536.5" r="1.5" fill="#7ADED6"/>
<circle cx="584.5" cy="536.5" r="1.5" fill="#7ADED6"/>
<circle cx="597.5" cy="536.5" r="1.5" fill="#7ADED6"/>
<circle cx="610.5" cy="536.5" r="1.5" fill="#7ADED6"/>
<circle cx="623.5" cy="536.5" r="1.5" fill="#7ADED6"/>
<circle cx="636.5" cy="536.5" r="1.5" fill="#7ADED6"/>
<circle cx="649.5" cy="536.5" r="1.5" fill="#7ADED6"/>
<circle cx="662.5" cy="536.5" r="1.5" fill="#7ADED6"/>
<circle cx="571.5" cy="549.5" r="1.5" fill="#7ADED6"/>
<circle cx="584.5" cy="549.5" r="1.5" fill="#7ADED6"/>
<circle cx="597.5" cy="549.5" r="1.5" fill="#7ADED6"/>
<circle cx="610.5" cy="549.5" r="1.5" fill="#7ADED6"/>
<circle cx="623.5" cy="549.5" r="1.5" fill="#7ADED6"/>
<circle cx="636.5" cy="549.5" r="1.5" fill="#7ADED6"/>
<circle cx="649.5" cy="549.5" r="1.5" fill="#7ADED6"/>
<circle cx="662.5" cy="549.5" r="1.5" fill="#7ADED6"/>
</g>
</g>
<defs>
<clipPath id="clip0_432_10">
<rect width="507" height="519" fill="white" transform="translate(157 32)"/>
</clipPath>
<clipPath id="clip1_432_10">
<rect width="94" height="94" fill="white" transform="translate(570 457)"/>
</clipPath>
</defs>
</svg>
