<svg fill="none" height="24" viewBox="0 0 24 24" width="24" xmlns="http://www.w3.org/2000/svg"><g fill="#000"><path d="m16.8218 5.1344c-.7331-.84046-1.1738-1.93635-1.1738-3.1344h-.9187c.2366 1.3095 1.0161 2.43326 2.0925 3.1344z"/><path d="m8.3218 11.9048c-1.59142 0-2.88589 1.2956-2.88589 2.8883 0 1.1099.631 2.0757 1.54965 2.5586-.34333-.4736-.54748-1.054-.54748-1.6856 0-1.5927 1.29447-2.8883 2.88592-2.8883.29693 0 .58456.051.8537.1346v-3.51048c-.27843-.03719-.56142-.06043-.8537-.06043-.05106 0-.09746.00465-.1485.00465v2.69326c-.27374-.0836-.55677-.1346-.8537-.1346z"/><path d="m19.4245 6.67608v2.67006c-1.7816 0-3.4333-.57113-4.7789-1.53703v6.98859c0 3.4874-2.8348 6.3293-6.32388 6.3293-1.34551 0-2.59822-.4272-3.6236-1.147 1.15528 1.2398 2.80237 2.02 4.6258 2.02 3.48438 0 6.32388-2.8373 6.32388-6.3293v-6.98859c1.3455.9659 2.9972 1.53699 4.7789 1.53699v-3.43617c-.348 0-.6821-.03719-1.0022-.10685z"/><path d="m14.6456 14.7977v-6.98859c1.3456.9659 2.9973 1.53703 4.7789 1.53703v-2.67006c-1.03-.2182-1.9346-.77545-2.6027-1.54168-1.0764-.70114-1.8514-1.8249-2.0973-3.1344h-2.5147l-.0047 13.7775c-.0556 1.5417-1.3269 2.7816-2.88117 2.7816-.96509 0-1.81416-.4783-2.34308-1.2027-.91866-.4876-1.54965-1.4488-1.54965-2.5587 0-1.5927 1.29447-2.8883 2.88588-2.8883.29694 0 .5846.0511.85371.1347v-2.69331c-3.41481.0743-6.17079 2.87901-6.17079 6.31991 0 1.6624.64492 3.1763 1.69812 4.3093 1.02538.7198 2.27809 1.147 3.6236 1.147 3.48438 0 6.32388-2.8419 6.32388-6.3293z" fill='white'/></g></svg>